# xmcd
#
# Track frame offsets:
#	182
#	18990
#	33807
#	49185
#	62677
#	82775
#	98987
#	116840
#	128937
#	149045
#
# Disc length: 2204 seconds
#
# Revision: 1
# Processed by: cddbd v1.5.2PL0 Copyright (c) Steve Scherf et al.
# Submitted via: audiograbber 1.83.01
#
DISCID=85089a0a
DTITLE=Bloodstone - Natural High and Other Hits
DYEAR=0
DGENRE=Oldies
TTITLE0=Natural High
TTITLE1=Do You Wanna Do A Thing
TTITLE2=Give Me Your Heart
TTITLE3=That's Not How It Goes
TTITLE4=Train Ride
TTITLE5=Never Let You Go
TTITLE6=The Traffic Cop (Dance)
TTITLE7=My Little Lady
TTITLE8=Little Linda
TTITLE9=Outside Woman
EXTD=
EXTT0=
EXTT1=
EXTT2=
EXTT3=
EXTT4=
EXTT5=
EXTT6=
EXTT7=
EXTT8=
EXTT9=
PLAYORDER=
